<svg xmlns="http://www.w3.org/2000/svg" xmlns:xlink="http://www.w3.org/1999/xlink" viewBox="0 0 284.63 59.61"><defs><style>.cls-1,.cls-5{fill:none;}.cls-2{clip-path:url(#clip-path);}.cls-3{fill:#aac4d9;}.cls-4{fill:#8d95ac;}.cls-5{stroke:#fff;stroke-miterlimit:10;}.cls-6{fill:#fff;}</style><clipPath id="clip-path" transform="translate(-0.37 -0.39)"><rect class="cls-1" width="285" height="60"/></clipPath></defs><g id="Layer_2" data-name="Layer 2"><g id="Layer_1-2" data-name="Layer 1"><g id="그룹_6809" data-name="그룹 6809"><g class="cls-2"><g id="그룹_6798" data-name="그룹 6798"><path id="패스_16810" data-name="패스 16810" class="cls-3" d="M47.46,60h-37c-4.81,0-7.67-4-6.38-8.9L14,13.35c1.29-4.92,6.24-8.9,11.05-8.9H62c4.81,0,7.67,4,6.38,8.9L58.51,51.1C57.22,56,52.27,60,47.46,60" transform="translate(-0.37 -0.39)"/><path id="패스_16811" data-name="패스 16811" class="cls-4" d="M44.55,56.44h-37c-4.81,0-7.67-4-6.38-8.9L11.09,9.79C12.38,4.87,17.33.89,22.14.89h37c4.82,0,7.67,4,6.38,8.9L55.6,47.54c-1.29,4.92-6.24,8.9-11.05,8.9" transform="translate(-0.37 -0.39)"/><path id="패스_16812" data-name="패스 16812" class="cls-5" d="M44.55,56.44h-37c-4.81,0-7.67-4-6.38-8.9L11.09,9.79C12.38,4.87,17.33.89,22.14.89h37c4.82,0,7.67,4,6.38,8.9L55.6,47.54C54.31,52.46,49.36,56.44,44.55,56.44Z" transform="translate(-0.37 -0.39)"/><path id="패스_16813" data-name="패스 16813" class="cls-6" d="M49.06,13.21c-2.52-2.56-6.88-3.74-10.53-.29l-.52.52a18.71,18.71,0,0,0-4.66,8,18.91,18.91,0,0,0-4.66-8c-.17-.18-.36-.35-.54-.53-3.65-3.44-8-2.26-10.51.3A7.6,7.6,0,0,0,17.34,24q.26.29.51.54a18.1,18.1,0,0,0,13,5.51c.21,0,.43,0,.66,0C28.79,32.21,23,37.86,23,45.52a1,1,0,1,0,2,0h0c0-7.41,6.47-13,8.42-14.45,2,1.5,8.43,7,8.43,14.45a1,1,0,0,0,2,0h0c0-7.66-5.79-13.3-8.52-15.53h.47a18.09,18.09,0,0,0,13-5.51,6.51,6.51,0,0,0,.51-.54,7.6,7.6,0,0,0-.28-10.74M19.2,23.12c-.16-.17-.31-.32-.46-.49a5.62,5.62,0,0,1,.16-8l.08-.08a5.35,5.35,0,0,1,7.88-.24c.16.14.32.3.47.46A16.94,16.94,0,0,1,32.12,28,16.27,16.27,0,0,1,19.2,23.12m28.74-.49-.45.49A16.29,16.29,0,0,1,34.56,28a17,17,0,0,1,4.79-13.2c.16-.15.31-.32.47-.46a5.33,5.33,0,0,1,7.56-.09c.11.1.22.22.32.33a5.62,5.62,0,0,1,.35,7.93,1.14,1.14,0,0,1-.11.11" transform="translate(-0.37 -0.39)"/><path id="패스_16814" data-name="패스 16814" class="cls-4" d="M157.06,37.44,156.64,39a15.27,15.27,0,0,1-1.46,3.61L176.3,48l-7.17,9.49-22.95-6.4a45.46,45.46,0,0,1-10.66,4.13,81.87,81.87,0,0,1-14.17,2.27l-1.25-9.37a85.12,85.12,0,0,0,9.68-1.25,49.07,49.07,0,0,0,7.57-2,19,19,0,0,0,5.12-2.65A6.2,6.2,0,0,0,144.86,39l.4-1.51Zm-15.1-17,1-3.67H131.11a2.58,2.58,0,0,1-2.54-2.62,2.84,2.84,0,0,1,.1-.64l1.62-6.17h26.17l-1.88,7.16,3.32-.7,1.85-7h11.06L163.4,35h-7.77a2.58,2.58,0,0,1-2.54-2.61,3.52,3.52,0,0,1,.09-.64L155,24.81l-3.32.7-2.27,8.67H138.35l1.13-4.31H127.67a2.57,2.57,0,0,1-2.53-2.61,2.43,2.43,0,0,1,.09-.65l1.62-6.17ZM176,38.6h-7.83A2.56,2.56,0,0,1,165.66,36a2.76,2.76,0,0,1,.1-.64l7.5-28.61h11.12Z" transform="translate(-0.37 -0.39)"/><path id="패스_16815" data-name="패스 16815" class="cls-3" d="M193.12,6.76h44.82l-8.39,32a2.61,2.61,0,0,1-2.51,2H212.68l-1.34,5.07h19.23l-2.18,8.3a2.6,2.6,0,0,1-2.5,2H180.7a2.62,2.62,0,0,1-2.59-2.67,2.37,2.37,0,0,1,.09-.65L180,45.77h19.23l1.33-5.07h-13A2.6,2.6,0,0,1,185,38.06a2.5,2.5,0,0,1,.09-.66ZM206,30.44h6.69L216.18,17H209.5Z" transform="translate(-0.37 -0.39)"/><path id="패스_16816" data-name="패스 16816" class="cls-3" d="M263,31.67a48.48,48.48,0,0,1-4.54,11.75,31.19,31.19,0,0,1-5.73,7.49,18.9,18.9,0,0,1-6.27,4A18.08,18.08,0,0,1,240.34,56a13.51,13.51,0,0,1-5.57-1.17,9,9,0,0,1-4.18-4,16.65,16.65,0,0,1-1.78-7.49,40.92,40.92,0,0,1,1.66-11.74A49,49,0,0,1,235,19.93a30.62,30.62,0,0,1,5.7-7.49,18.9,18.9,0,0,1,6.27-4,17.91,17.91,0,0,1,6.18-1.16,13.24,13.24,0,0,1,5.52,1.16,9,9,0,0,1,4.18,4,16.83,16.83,0,0,1,1.8,7.49A40,40,0,0,1,263,31.68m-20.78,0A56.32,56.32,0,0,0,240.72,39a17.76,17.76,0,0,0-.12,4.37,3.26,3.26,0,0,0,.9,2.13A2.3,2.3,0,0,0,243,46a3.42,3.42,0,0,0,1.69-.55,7,7,0,0,0,2-2.1,23.24,23.24,0,0,0,2.2-4.37,63.7,63.7,0,0,0,2.34-7.37,56.82,56.82,0,0,0,1.51-7.29A16.18,16.18,0,0,0,252.8,20a3.44,3.44,0,0,0-.9-2.1,2.07,2.07,0,0,0-1.4-.55,3.48,3.48,0,0,0-1.77.55,6.64,6.64,0,0,0-2,2.13,25.78,25.78,0,0,0-2.17,4.37,61.56,61.56,0,0,0-2.31,7.28M280,23.8h5l-2.13,8.13a2.52,2.52,0,0,1-2.43,1.9h-3l-5.33,20.31a2.51,2.51,0,0,1-2.42,1.9h-6.6a2.57,2.57,0,0,1-2.53-2.61,2.3,2.3,0,0,1,.09-.64L272.7,6.73h11.82Z" transform="translate(-0.37 -0.39)"/><path id="패스_16817" data-name="패스 16817" class="cls-4" d="M112.52,7.25l-2.17,8.23a2.54,2.54,0,0,1-2.45,1.93H91.22l-2.37,9h18.63l-2.15,8.2a2.6,2.6,0,0,1-2.49,2H86.19l-2.28,8.68h19.21L101,53.5a2.54,2.54,0,0,1-2.47,1.94H72.59A2.59,2.59,0,0,1,70,52.82a2.84,2.84,0,0,1,.1-.65L81.92,7.25ZM115.28,56h-6.66A2.61,2.61,0,0,1,106,53.39a2.84,2.84,0,0,1,.1-.65L118.39,6.07h12l-12.6,48A2.57,2.57,0,0,1,115.27,56" transform="translate(-0.37 -0.39)"/><path id="패스_16818" data-name="패스 16818" class="cls-6" d="M118,43.55l0,.37.1-.39ZM79.71,4.17,68.08,48.51a3.28,3.28,0,0,0,2.28,4,3.78,3.78,0,0,0,.82.12h26a2.49,2.49,0,0,0,2.39-1.87l2.6-9.95H83.68l1.67-6.35h15.87a2.72,2.72,0,0,0,2.63-2.06l2.56-9.75h-18L90.2,16h15.9a2.7,2.7,0,0,0,2.6-2.05l2.56-9.77Z" transform="translate(-0.37 -0.39)"/><path id="패스_16819" data-name="패스 16819" class="cls-6" d="M157.11,3l-1.84,7.05-1.08.23,1.74-6.71H128.6l.16-.57H114.88l-12.1,46.05a3.29,3.29,0,0,0,2.32,4,3.6,3.6,0,0,0,.8.12h7.78a2.5,2.5,0,0,0,2.39-1.87l2-7.44,0-.37.16,0L123,24.94a3.23,3.23,0,0,0,3.15,2.72h10.6l-1.12,4.21h12.88l2.27-8.62,1.08-.24-1.45,5.52a3.28,3.28,0,0,0,2.29,4,3.16,3.16,0,0,0,.81.11h8.66L170,3ZM139.7,16.41H125.24l1.13-4.28a3.23,3.23,0,0,0,3.17,2.72h10.58Z" transform="translate(-0.37 -0.39)"/><path id="패스_16820" data-name="패스 16820" class="cls-3" d="M110,5.19l-2.09,7.93A2.46,2.46,0,0,1,105.52,15H89.45l-2.29,8.71h18l-2.07,7.91a2.51,2.51,0,0,1-2.41,1.88h-16l-2.2,8.37h18.52l-2.08,7.92a2.49,2.49,0,0,1-2.39,1.88h-25A2.5,2.5,0,0,1,69,49.11a2.16,2.16,0,0,1,.09-.62L80.47,5.19Zm2.65,47h-6.42a2.53,2.53,0,0,1-2.48-2.56,3.42,3.42,0,0,1,.09-.63l11.81-45h11.55L115,50.34a2.49,2.49,0,0,1-2.39,1.88" transform="translate(-0.37 -0.39)"/><path id="패스_16821" data-name="패스 16821" class="cls-6" d="M154.85,38.46a18.57,18.57,0,0,0,.94-2.62l.73-2.79H142.93l-.58,2.22a5,5,0,0,1-2,2.62,17.46,17.46,0,0,1-4.74,2.44,46.35,46.35,0,0,1-7.25,1.92A81.81,81.81,0,0,1,119,43.48l-.89.05-.15,0,0,.37,1.43,10.8.94-.07a79.91,79.91,0,0,0,14-2.26,45.86,45.86,0,0,0,10.32-3.93l22.69,6.33,8.35-11ZM170.33,3l-7.62,29a3.25,3.25,0,0,0,2.26,4,3,3,0,0,0,.84.12h8.73L183.24,3Z" transform="translate(-0.37 -0.39)"/><path id="패스_16822" data-name="패스 16822" class="cls-3" d="M155.23,34.05l-.4,1.54a15.47,15.47,0,0,1-1.43,3.53l20.66,5.24-7,9.28L144.6,47.37a44.92,44.92,0,0,1-10.44,4.05,80.1,80.1,0,0,1-13.85,2.22l-1.22-9.17a86.65,86.65,0,0,0,9.47-1.22,48.63,48.63,0,0,0,7.4-2,18.72,18.72,0,0,0,5-2.59,6,6,0,0,0,2.33-3.16l.39-1.48ZM140.46,17.43l.95-3.59H129.85a2.52,2.52,0,0,1-2.48-2.56,3.42,3.42,0,0,1,.09-.63l1.59-6h25.6l-1.84,7,3.25-.69,1.8-6.88h10.82l-7.24,27.61h-7.6a2.51,2.51,0,0,1-2.48-2.55,2.28,2.28,0,0,1,.09-.63l1.78-6.78-3.24.68-2.23,8.48H136.94l1.1-4.21H126.49A2.51,2.51,0,0,1,124,24.1a2.18,2.18,0,0,1,.09-.63l1.58-6Zm33.32,17.76h-7.66a2.5,2.5,0,0,1-2.47-2.53,2.23,2.23,0,0,1,.09-.63l7.34-28H182Z" transform="translate(-0.37 -0.39)"/><path id="패스_16823" data-name="패스 16823" class="cls-6" d="M226.9,41.41a18,18,0,0,0,.65,3.49l.9-3.49Z" transform="translate(-0.37 -0.39)"/><path id="패스_16824" data-name="패스 16824" class="cls-6" d="M263.78,16.89a40.76,40.76,0,0,1-1.62,11.78,47.72,47.72,0,0,1-4.55,11.73A31,31,0,0,1,251.83,48,19.54,19.54,0,0,1,245.38,52a19,19,0,0,1-6.33,1.2A14.17,14.17,0,0,1,233.21,52a9.9,9.9,0,0,1-4.55-4.29,12.37,12.37,0,0,1-1.11-2.81l.9-3.49H226.9c-.05-.48-.09-1-.1-1.48a24.85,24.85,0,0,1,.09-3.23A3.23,3.23,0,0,1,224,38.6H210.83l-.73,2.81h16.8a18.56,18.56,0,0,0,.64,3.48l-1.7,6.47a2.48,2.48,0,0,1-2.39,1.86h-44.2A3.27,3.27,0,0,1,176,49.89a3.69,3.69,0,0,1,.12-.81l2-7.67h18.36l.73-2.81H185.49a3,3,0,0,1-3-3.05,3.24,3.24,0,0,1,.11-.76l8-30.62h44.82l-4,15.07c.45-1,.92-1.94,1.41-2.81a31.09,31.09,0,0,1,5.79-7.56,19.42,19.42,0,0,1,6.45-4.06,18.65,18.65,0,0,1,6.36-1.21,13.94,13.94,0,0,1,5.79,1.23,10,10,0,0,1,4.55,4.29,17.92,17.92,0,0,1,1.9,7.77" transform="translate(-0.37 -0.39)"/><path id="패스_16825" data-name="패스 16825" class="cls-4" d="M191.42,5.19H234.2l-8,30.51a2.49,2.49,0,0,1-2.41,1.88h-13.7l-1.27,4.84h18.35l-2.09,7.93a2.47,2.47,0,0,1-2.38,1.87H179.56a2.51,2.51,0,0,1-2.47-2.55,2.72,2.72,0,0,1,.08-.63l1.74-6.62h18.35l1.27-4.84h-12.4A2.5,2.5,0,0,1,183.66,35a2.28,2.28,0,0,1,.09-.63Zm13.17,21h3.66l2.36-9H207Z" transform="translate(-0.37 -0.39)"/><path id="패스_16826" data-name="패스 16826" class="cls-6" d="M226.9,41.41a18,18,0,0,0,.65,3.49l.9-3.49Zm52.22-21.69L283.5,3H269.9L257.73,49.4a3,3,0,0,0,2.14,3.72,2.64,2.64,0,0,0,.74.1h7.62a2.72,2.72,0,0,0,2.63-2.06L276,31.54h2.58a3,3,0,0,0,2.86-2.26L284,19.72Z" transform="translate(-0.37 -0.39)"/><path id="패스_16827" data-name="패스 16827" class="cls-4" d="M277.82,20.74l4.4-16.69H270.66l-11.8,45a2.49,2.49,0,0,0,1.74,3.07,2.37,2.37,0,0,0,.65.09h6.43a2.45,2.45,0,0,0,2.37-1.85l5.21-19.83h3a2.46,2.46,0,0,0,2.37-1.85l2.1-7.94Z" transform="translate(-0.37 -0.39)"/><path id="패스_16828" data-name="패스 16828" class="cls-4" d="M261,9.63a8.8,8.8,0,0,0-4.08-3.87,13,13,0,0,0-5.38-1.14,17.59,17.59,0,0,0-6.05,1.14,18.34,18.34,0,0,0-6.12,3.87A29.53,29.53,0,0,0,233.81,17a48.68,48.68,0,0,0-4.41,11.47,40.74,40.74,0,0,0-1.62,11.46,16.61,16.61,0,0,0,1.74,7.33,8.77,8.77,0,0,0,4.08,3.86,13,13,0,0,0,5.46,1.14,17.25,17.25,0,0,0,6-1.14,18,18,0,0,0,6.13-3.86,31,31,0,0,0,5.6-7.33,47.49,47.49,0,0,0,4.43-11.46A39,39,0,0,0,262.78,17,16.32,16.32,0,0,0,261,9.63m-11.55,5.64-6.9,26.3a1.26,1.26,0,0,1-1,.86h-.06l-.12,0a.63.63,0,0,1-.54-.7.74.74,0,0,1,0-.14l6.9-26.3a1.23,1.23,0,0,1,.8-.83h0a.93.93,0,0,1,.23,0h0a.65.65,0,0,1,.61.69.57.57,0,0,1,0,.18" transform="translate(-0.37 -0.39)"/></g></g></g></g></g></svg>