<svg xmlns="http://www.w3.org/2000/svg" xmlns:xlink="http://www.w3.org/1999/xlink" width="167" height="49" viewBox="0 0 167 49"><defs><clipPath id="b"><rect width="167" height="49"/></clipPath></defs><g id="a" clip-path="url(#b)"><rect width="167" height="49" fill="#fff"/><g transform="translate(0 13.319)"><path d="M25,12.53c-.15.09-.29.17-.43.27h0Z" transform="translate(0.09 -11)" fill="#fff"/><path d="M28.24,16.23l-1,.5a3.72,3.72,0,0,1,.48-.27Z" transform="translate(0.09 -11)" fill="#fff"/><path d="M14.43,27.67a3.72,3.72,0,0,1-.48.27l-.49.23Z" transform="translate(0.09 -11)" fill="#fff"/><path d="M29.55,20l-.92.82a2.29,2.29,0,0,1,.92-.82Z" transform="translate(0.09 -11)" fill="#fff"/><path d="M31.7,24.28l.65-.48A2.07,2.07,0,0,1,31.7,24.28Z" transform="translate(0.09 -11)" fill="#fff"/><path d="M30.32,19.79l-.77.24a2.22,2.22,0,0,1,.77-.24Z" transform="translate(0.09 -11)" fill="#fff"/><path d="M26.69,17v.08a5.14,5.14,0,0,1,.54-.37Zm0,0v.08a5.14,5.14,0,0,1,.54-.37Zm-1.1-4.82-.6.33,1.23-.62Zm.63-.29,1.23-.45a10.63,10.63,0,0,0-1.23.47ZM26.69,17v.08a5.14,5.14,0,0,1,.54-.37Zm0,0v.08a5.14,5.14,0,0,1,.54-.37Z" transform="translate(0.09 -11)" fill="#fff"/><path d="M40.58,17.12a11.16,11.16,0,0,1-17.77,13l4.72-2.39a6.38,6.38,0,1,0,.71-11.5l-.49.23a3.72,3.72,0,0,0-.48.27L14.52,23.17a3.48,3.48,0,0,0-.26-2.54,3.56,3.56,0,0,0-1.89-1.72l12.17-6.15h0c.14-.1.28-.18.43-.27l1.23-.62,1.23-.45A11.16,11.16,0,0,1,40.58,17.12Z" transform="translate(0.09 -11)" fill="#f22f2a"/><path d="M14.25,32.94a12.88,12.88,0,0,0,1.23-.45Zm1.23-.45.62-.29.61-.33Z" transform="translate(0.09 -11)" fill="#fff"/><path d="M27.43,23.77a3.58,3.58,0,0,0,1.9,1.72l-13.85,7-1.23.45a11.16,11.16,0,1,1,4.64-18.66l-4.72,2.39a6.38,6.38,0,1,0-.71,11.5l.49-.23a3.72,3.72,0,0,0,.48-.27l12.74-6.44a3.58,3.58,0,0,0,.26,2.54Z" transform="translate(0.09 -11)" fill="#f49800"/><path d="M13.2,21.17a2.36,2.36,0,1,1-2-1.31,2.36,2.36,0,0,1,2,1.31Z" transform="translate(0.09 -11)" fill="#f22f2a"/><path d="M32.76,21.08a2.39,2.39,0,0,1-.41,2.72l-.65.48a2.38,2.38,0,0,1-3.07-3.43l.92-.82.77-.24a2.39,2.39,0,0,1,2.44,1.29Z" transform="translate(0.09 -11)" fill="#f49800"/><path d="M51.56,12.67v17a2.38,2.38,0,0,1-4.75,0V13.88A1.21,1.21,0,0,1,48,12.67Z" transform="translate(0.09 -11)" fill="#313339"/><path d="M90,32.07h0a2.37,2.37,0,0,1-2.37-2.38V15a2.3,2.3,0,0,1,2.3-2.31h0a2.45,2.45,0,0,1,2.45,2.45V29.69A2.37,2.37,0,0,1,90,32.07Z" transform="translate(0.09 -11)" fill="#313339"/><path d="M119.74,32.07h0a2.37,2.37,0,0,1-2.38-2.38V15a2.3,2.3,0,0,1,2.3-2.31h0a2.45,2.45,0,0,1,2.45,2.45V29.69a2.37,2.37,0,0,1-2.37,2.38Z" transform="translate(0.09 -11)" fill="#313339"/><path d="M128.87,32.07h0a2.37,2.37,0,0,1-2.37-2.38V15a2.3,2.3,0,0,1,2.3-2.31h0a2.45,2.45,0,0,1,2.45,2.45V29.69a2.37,2.37,0,0,1-2.38,2.38Z" transform="translate(0.09 -11)" fill="#313339"/><path d="M142.47,32.07h0a2.37,2.37,0,0,1-2.37-2.38V15a2.3,2.3,0,0,1,2.3-2.31h0a2.45,2.45,0,0,1,2.45,2.45V29.69a2.37,2.37,0,0,1-2.38,2.38Z" transform="translate(0.09 -11)" fill="#313339"/><path d="M143.41,31.55h0a2.38,2.38,0,0,1-3.35-.26L127.22,16.34a2.3,2.3,0,0,1,.25-3.25h0a2.45,2.45,0,0,1,3.45.26L143.66,28.2A2.38,2.38,0,0,1,143.41,31.55Z" transform="translate(0.09 -11)" fill="#313339"/><path d="M66.24,32.09h0A2.37,2.37,0,0,1,65,29l6.79-15.3a2.31,2.31,0,0,1,3-1.17l.13.06a2.31,2.31,0,0,1,1.17,3l-6.8,15.3A2.39,2.39,0,0,1,66.24,32.09Z" transform="translate(0.09 -11)" fill="#313339"/><path d="M83.19,32.09h0A2.37,2.37,0,0,0,84.39,29L77.6,13.65a2.3,2.3,0,0,0-3-1.17l-.13.06a2.29,2.29,0,0,0-1.17,3l6.79,15.3a2.39,2.39,0,0,0,3.1,1.25Z" transform="translate(0.09 -11)" fill="#313339"/><rect width="9.5" height="3.56" transform="translate(48.08 1.67)" fill="#313339"/><rect width="9.5" height="3.56" transform="translate(48.08 12.36)" fill="#313339"/><path d="M57.5,12.68H55.12a7.13,7.13,0,1,0,0,14.25H57.5a7.13,7.13,0,0,0,0-14.23Zm1.58,7.26a3.42,3.42,0,0,1-3.42,3.42H52.21a3.49,3.49,0,0,1-.65-.06v-7h4.6a3.43,3.43,0,0,1,2.92,3.39Z" transform="translate(0.09 -11)" fill="#313339"/><path d="M51.56,16.26v7a3.43,3.43,0,0,1-2.77-3.36v-.32a3.42,3.42,0,0,1,2.77-3.32Z" transform="translate(0.09 -11)" fill="#313339"/><path d="M101.71,13.77V29.7a2.38,2.38,0,0,1-4.75,0V15a2.31,2.31,0,0,1,2.3-2.31h1.35a1.11,1.11,0,0,1,1,.76,1.27,1.27,0,0,1,.1.32Z" transform="translate(0.09 -11)" fill="#313339"/><path d="M111.42,32.27h0a2.37,2.37,0,0,1-3.3-.61l-4.32-6.28,3.91-2.69L112,29A2.37,2.37,0,0,1,111.42,32.27Z" transform="translate(0.09 -11)" fill="#313339"/><path d="M107.65,12.67v3.56h-9.5V13a2.32,2.32,0,0,1,1.11-.29Z" transform="translate(0.09 -11)" fill="#313339"/><rect width="9.5" height="3.56" transform="translate(98.23 12.36)" fill="#313339"/><path d="M107.65,12.72a7.52,7.52,0,0,0-.82-.05h-2a7.13,7.13,0,0,0-6.18,10.69,6.989,6.989,0,0,0,6.14,3.56h2a7.5,7.5,0,0,0,.82,0,7.129,7.129,0,0,0,0-14.16Zm1.16,7.22a3.43,3.43,0,0,1-3.43,3.42h-3.67V16.23h4.18a3.43,3.43,0,0,1,2.92,3.39Z" transform="translate(0.09 -11)" fill="#313339"/><path d="M105.89,16.23h-4.18v7.12a3.43,3.43,0,0,1-3.2-3.41v-.32a3.43,3.43,0,0,1,2.92-3.39h3.95a4.36,4.36,0,0,1,.51,0Z" transform="translate(0.09 -11)" fill="#313339"/><circle cx="2.93" cy="2.93" r="2.93" transform="translate(71.86 0.48)" fill="#313339"/><rect width="10.63" height="4.04" transform="translate(69.01 13.23)" fill="#313339"/><path d="M166.68,24.65V28.9s-.92,3.63-8.11,3.75a10.46,10.46,0,0,1-10.73-10.51,10.35,10.35,0,0,1,14.57-9.27,10.23,10.23,0,0,1,2.28,1.41c.28.22.54.46.79.7a1.14,1.14,0,0,1,0,1.65L164,18a1.13,1.13,0,0,1-1.56,0h0A5.62,5.62,0,0,0,161,17a6,6,0,0,0-3.11-.67,6.1,6.1,0,1,0,.32,12.2s3,.26,4.23-1v-4H160.2a2.34,2.34,0,1,1,.19-1.94h3.85C165.8,21.67,166.68,22.92,166.68,24.65Z" transform="translate(0.09 -11)" fill="#313339"/><path d="M167,15Z" transform="translate(0.09 -11)" fill="#313339"/></g></g></svg>