<svg xmlns="http://www.w3.org/2000/svg" xmlns:xlink="http://www.w3.org/1999/xlink" width="167" height="46" viewBox="0 0 167 46"><defs><clipPath id="a"><rect width="167" height="46" fill="none"/></clipPath></defs><g transform="translate(0 0)"><g transform="translate(0 0)" clip-path="url(#a)"><path d="M97.648,0H16.793A9.4,9.4,0,0,0,8.288,6.7L.234,36.811c-.985,3.7,1.221,6.714,4.913,6.714H86A9.378,9.378,0,0,0,94.1,37.9h-2.53a5.916,5.916,0,0,1-4.9,3.135H18.615L23.871,21.4l2.688,3.687a.891.891,0,0,0,.738.335,1.466,1.466,0,0,0,.9-.335,1.245,1.245,0,0,0,.434-1.636l-2.579-3.53h8.269l.768-2.879H30.556A12.394,12.394,0,0,0,33.7,15.23a10.37,10.37,0,0,0,1.191-1.084c1.949-2.041,1.851-4.308.876-5.639s-3.041-2.05-5.474-.64a15.646,15.646,0,0,0-1.319.888,12.945,12.945,0,0,0-2.4,2.524L28.922,2.5H96.988a3.045,3.045,0,0,1,2.983,1.883h2.8A4.838,4.838,0,0,0,97.648,0m-82.3,41.031H5.816a3.126,3.126,0,0,1-3.082-4.22L7.244,19.924H19.2l-4.479,3.53a1.248,1.248,0,0,0-.434,1.636.85.85,0,0,0,.729.335,1.521,1.521,0,0,0,.915-.335L20.594,21.4Zm5.828-24.892a5.774,5.774,0,0,1-5.729-2,3.661,3.661,0,0,1-.482-.858c-.6-1.41.4-2.868,1.437-3.687a4.189,4.189,0,0,1,2.411-.955,2.122,2.122,0,0,1,1.389.493,3.552,3.552,0,0,1,.669.72,6.32,6.32,0,0,1,.305,6.29m2.136-4.871a6.2,6.2,0,0,0-1.053-2.513,5.558,5.558,0,0,0-.846-.888c-1.674-1.41-4.125-.7-5.808.64s-3,3.6-2.146,5.639a5.6,5.6,0,0,0,.611,1.084,6,6,0,0,0,2.175,1.814H8.012L10.788,6.7a5.878,5.878,0,0,1,5.336-4.2h9.52Zm6.459-1.419a9.458,9.458,0,0,1,1.064-.72,2.549,2.549,0,0,1,3.544.463,2.782,2.782,0,0,1-.522,3.687,8.629,8.629,0,0,1-.945.858c-2.087,1.646-4.933,2.464-6.8,2a5.041,5.041,0,0,1,.187-1.213,10.336,10.336,0,0,1,3.475-5.077" transform="translate(4.837 1.167)" fill="#364469"/><path d="M61.018,8.773l-1.487,5.552H49.152l-1.322,4.939H58.21l-1.486,5.552H46.345l-1.269,4.745h10.7l-1.486,5.552H36.917l7.048-26.34Zm2.633,26.663H56.977L64.285,8.128h6.673Z" transform="translate(0.271 0.071)" fill="#364469"/><path d="M89.693,25.139l-.233.872a8.515,8.515,0,0,1-.825,2l11.937,2.97-4.051,5.262-12.975-3.55a26.223,26.223,0,0,1-6.029,2.291,46.99,46.99,0,0,1-8.009,1.259l-.705-5.2a49.837,49.837,0,0,0,5.473-.694,28.451,28.451,0,0,0,4.279-1.114,10.932,10.932,0,0,0,2.891-1.469,3.418,3.418,0,0,0,1.35-1.793l.224-.838ZM81.16,15.714l.544-2.035H73.161l1.4-5.229h14.8L88.3,12.419l1.876-.386,1.045-3.9h6.254L93.281,23.784H87.027l1.512-5.65-1.877.387-1.287,4.81H79.121l.64-2.389H71.219l1.4-5.228Zm19.258,10.07H94.132L98.855,8.128h6.286Z" transform="translate(0.506 0.071)" fill="#364469"/><path d="M111.369,8.768h24.724l-4.915,18.367h-9.026l-.733,2.744h10.6l-1.485,5.552H102.655l1.485-5.552h10.606l.733-2.744h-9.026Zm3.244,12.815h11.379l1.944-7.263h-11.38Z" transform="translate(0.755 0.077)" fill="#8d95ac"/><path d="M153.6,21.943a26.6,26.6,0,0,1-2.564,6.505A17.257,17.257,0,0,1,147.8,32.6a10.657,10.657,0,0,1-3.538,2.2,10.348,10.348,0,0,1-3.46.646,7.757,7.757,0,0,1-3.147-.646,5.044,5.044,0,0,1-2.362-2.2,9.1,9.1,0,0,1-1-4.147,22.355,22.355,0,0,1,.936-6.505,26.981,26.981,0,0,1,2.546-6.5,16.926,16.926,0,0,1,3.222-4.148,10.664,10.664,0,0,1,3.537-2.2,10.406,10.406,0,0,1,3.493-.646,7.666,7.666,0,0,1,3.116.646,5.048,5.048,0,0,1,2.362,2.2,9.242,9.242,0,0,1,1.017,4.148,21.97,21.97,0,0,1-.918,6.5m-11.734,0a30.56,30.56,0,0,0-.854,4.034,9.839,9.839,0,0,0-.069,2.422,1.793,1.793,0,0,0,.507,1.178,1.315,1.315,0,0,0,.837.307,1.964,1.964,0,0,0,.953-.307,3.917,3.917,0,0,0,1.132-1.162,12.9,12.9,0,0,0,1.244-2.422,34.4,34.4,0,0,0,1.319-4.082,30.83,30.83,0,0,0,.853-4.034,8.975,8.975,0,0,0,.047-2.406,1.884,1.884,0,0,0-.511-1.162,1.213,1.213,0,0,0-.789-.307,2.081,2.081,0,0,0-1,.307,3.681,3.681,0,0,0-1.138,1.178,14.074,14.074,0,0,0-1.227,2.42,33.71,33.71,0,0,0-1.3,4.036m21.345-4.358h2.8l-1.485,5.552h-2.805l-3.291,12.3H151.76l7.306-27.308h6.673Z" transform="translate(0.987 0.071)" fill="#8d95ac"/></g></g></svg>